<svg width="64" height="64" viewBox="0 0 64 64" fill="none" xmlns="http://www.w3.org/2000/svg">
<circle cx="32.0001" cy="35.4761" r="27.4167" fill="#A970FF" fill-opacity="0.6" stroke="#A970FF" stroke-width="1.16667"/>
<path d="M34.8075 46.6443C33.0614 47.1121 31.3789 47.2013 29.7601 46.9116C28.1412 46.6219 26.7293 45.9308 25.5244 44.8382C24.3303 43.7271 23.4737 42.2031 22.9547 40.2662L20.3539 30.5597L28.0134 28.5074L30.4904 37.7516C30.6712 38.4266 30.9487 38.9341 31.323 39.2742C31.7118 39.6103 32.2071 39.6978 32.8087 39.5366C33.9679 39.226 34.3568 38.3591 33.9754 36.9357L25.9842 7.11215L33.7978 5.01851L41.5826 34.0717C42.133 36.126 42.2072 38.017 41.8051 39.7446C41.3991 41.4575 40.5945 42.9155 39.3914 44.1186C38.1843 45.307 36.6564 46.1489 34.8075 46.6443Z" fill="white"/>
<circle cx="32.0002" cy="35.4761" r="6.41667" fill="#A970FF" stroke="#A970FF" stroke-width="1.16667"/>
</svg>
